# xmcd CD database file
#
# Track frame offsets:
#	150
#	26994
#	54071
#	90596
#	116475
#	134400
#	166125
#	187725
#	208804
#	229505
#	252228
#	278779
#
# Disc length: 4212 seconds
#
# Revision: 0
# Processed by: cddbd v1.5.2PL0 Copyright (c) Steve Scherf et al.
# Submitted via: CDex 1.50
#
DISCID=9a10720c
DTITLE=Claudio Della Corte - Tzigalo - Live au Théâtre de Vedure
DYEAR=2005
DGENRE=Jazz
TTITLE0=All of Me
TTITLE1=The Sheik of Araby
TTITLE2=Joseph, Joseph
TTITLE3=Stomping at Decca
TTITLE4=Arles Tune
TTITLE5=Django Tiger
TTITLE6=Something Like Blues
TTITLE7=Claudiology
TTITLE8=Vittorero
TTITLE9=Bei Mir Bist du Schön
TTITLE10=Sweet Georgia Brown
TTITLE11=Les Yeux Noirs
EXTD=YEAR: 2005
EXTT0=
EXTT1=
EXTT2=
EXTT3=
EXTT4=
EXTT5=
EXTT6=
EXTT7=
EXTT8=
EXTT9=
EXTT10=
EXTT11=
PLAYORDER=
